<svg width="230" height="230" viewBox="0 0 230 230" fill="none" xmlns="http://www.w3.org/2000/svg">
<rect width="230" height="230" rx="20" fill="#0E1117"/>
<rect width="230" height="230" rx="20" fill="#0E1117"/>
<path d="M53.5133 88L52.397 101.205H30.4425V107.897H48.3038V120.746H30.4425V127.795H53.9784V141H15V88H53.5133Z" fill="#FFFFE3"/>
<path d="M112.785 114.5C112.785 119.556 111.544 124.107 109.064 128.152C106.583 132.137 103.048 135.29 98.4586 137.609C93.9313 139.87 88.5357 141 82.2718 141H60.9686V88H82.2718C88.5357 88 93.9313 89.1599 98.4586 91.4798C103.048 93.7402 106.583 96.8631 109.064 100.848C111.544 104.834 112.785 109.384 112.785 114.5ZM96.6911 114.5C96.6911 111.585 96.1019 109.087 94.9235 107.005C93.8072 104.923 92.1637 103.317 89.9931 102.187C87.8225 101.057 85.2487 100.492 82.2718 100.492H76.3181V128.508H82.2718C85.2487 128.508 87.8225 127.943 89.9931 126.813C92.1637 125.683 93.8072 124.077 94.9235 121.995C96.1019 119.854 96.6911 117.355 96.6911 114.5Z" fill="#FFFFE3"/>
<path d="M146.08 141H130.637V101.384H115.846V88H161.429L160.313 101.384H146.08V141Z" fill="#FFFFE3"/>
<path d="M210.628 106.559C210.628 109.771 209.759 112.656 208.023 115.214C206.286 117.772 204.023 119.616 201.232 120.746L215 141H197.139L186.255 124.404H181.975V141H166.533V88H186.813C192.022 88 196.395 88.7435 199.93 90.2306C203.465 91.6583 206.131 93.7699 207.93 96.5657C209.728 99.3019 210.628 102.633 210.628 106.559ZM195.092 106.559C195.092 105.131 194.751 103.942 194.069 102.99C193.449 102.038 192.487 101.324 191.185 100.848C189.945 100.373 188.394 100.135 186.534 100.135H181.975V112.983H186.534C188.394 112.983 189.945 112.745 191.185 112.269C192.487 111.793 193.449 111.08 194.069 110.128C194.751 109.176 195.092 107.987 195.092 106.559Z" fill="#FFFFE3"/>
</svg>
